<?xml version="1.0" encoding="UTF-8" standalone="no"?>
<svg
   width="178"
   height="52"
   viewBox="0 0 178 52"
   fill="none"
   version="1.1"
   id="svg6"
   sodipodi:docname="DDX_Logo.svg"
   inkscape:version="1.3.2 (091e20e, 2023-11-25, custom)"
   xmlns:inkscape="http://www.inkscape.org/namespaces/inkscape"
   xmlns:sodipodi="http://sodipodi.sourceforge.net/DTD/sodipodi-0.dtd"
   xmlns="http://www.w3.org/2000/svg"
   xmlns:svg="http://www.w3.org/2000/svg">
  <defs
     id="defs6">
    <pattern
       id="EMFhbasepattern"
       patternUnits="userSpaceOnUse"
       width="6"
       height="6"
       x="0"
       y="0" />
  </defs>
  <sodipodi:namedview
     id="namedview6"
     pagecolor="#ffffff"
     bordercolor="#000000"
     borderopacity="0.25"
     inkscape:showpageshadow="2"
     inkscape:pageopacity="0.0"
     inkscape:pagecheckerboard="0"
     inkscape:deskcolor="#d1d1d1"
     inkscape:zoom="3.3587572"
     inkscape:cx="70.264084"
     inkscape:cy="5.5079897"
     inkscape:window-width="2504"
     inkscape:window-height="1511"
     inkscape:window-x="-9"
     inkscape:window-y="-9"
     inkscape:window-maximized="1"
     inkscape:current-layer="svg6" />
  <path
     d="M 1.62496,51.6585 C 3.86588,50.4118 6.80085,47.7514 9.18386,44.8068 11.3084,42.1816 13.0457,39.2175 14.133,36.363 16.4189,30.3614 16.6172,23.0854 14.6645,16.8665 13.7544,13.9683 12.3898,11.2613 10.6116,8.82718 8.84955,6.41508 6.26157,3.81372 3.84807,2.02864 3.15026,1.51254 1.54248,0.465112 1.00148,0.174184 0.60522,-0.0389089 0.59545,-0.0405566 0.46291,0.0834344 0.27632,0.257974 0,0.75964 0,0.923853 0,1.06902 0.279989,1.33914 1.62843,2.49479 3.25912,3.89239 5.09719,5.8624 6.03259,7.21512 8.38697,10.6199 9.77374,15.0272 10.2941,20.7589 c 0.2327,2.5627 0.1822,7.8372 -0.1025,10.7068 -0.55923,5.6368 -1.87402,9.8055 -4.25034,13.4762 -1.34406,2.0762 -2.90476,3.7121 -5.241521,5.4942 -0.35199,0.2684 -0.6566592,0.533 -0.6770492,0.5879 -0.0795,0.2141 0.5603292,0.9774 0.8181492,0.976 0.0947,-6e-4 0.447521,-0.1542 0.784121,-0.3415 z"
     fill="#2c2c2c"
     id="path1"
     style="fill:#abaeae;fill-opacity:0.94901961" />
  <path
     d="m 22.6843,51.6585 c 2.241,-1.2467 5.1759,-3.9071 7.5589,-6.8517 2.1246,-2.6252 3.8619,-5.5893 4.9492,-8.4438 2.2859,-6.0016 2.4842,-13.2776 0.5315,-19.4965 C 34.8138,13.9683 33.4491,11.2613 31.671,8.82718 29.9089,6.41508 27.321,3.81372 24.9075,2.02864 24.2096,1.51254 22.6019,0.465112 22.0609,0.174184 21.6646,-0.0389089 21.6548,-0.0405566 21.5223,0.0834344 21.3357,0.257974 21.0594,0.75964 21.0594,0.923853 c 0,0.145167 0.28,0.415287 1.6284,1.570937 1.6307,1.3976 3.4688,3.36761 4.4042,4.72033 2.3544,3.40478 3.7411,7.81208 4.2615,13.54378 0.2327,2.5627 0.1822,7.8372 -0.1025,10.7068 -0.5592,5.6368 -1.874,9.8055 -4.2504,13.4762 -1.344,2.0762 -2.9047,3.7122 -5.2415,5.4942 -0.352,0.2684 -0.6566,0.533 -0.677,0.5879 -0.0795,0.2141 0.5603,0.9774 0.8181,0.976 0.0947,-6e-4 0.4475,-0.1542 0.7841,-0.3415 z"
     fill="#2c2c2c"
     id="path2"
     style="fill:#abaeae;fill-opacity:0.94901961" />
  <path
     d="M 58.3125,51.6585 C 56.0716,50.4118 53.1367,47.7514 50.7536,44.8068 48.6291,42.1816 46.8917,39.2175 45.8045,36.363 43.5186,30.3614 43.3203,23.0854 45.273,16.8665 c 0.9101,-2.8982 2.2747,-5.6052 4.0529,-8.03932 1.7621,-2.4121 4.35,-5.01346 6.7635,-6.79854 0.6978,-0.5161 2.3056,-1.563528 2.8466,-1.854456 0.3963,-0.2130929 0.4061,-0.2147406 0.5386,-0.0907496 0.1866,0.1745396 0.4629,0.6762056 0.4629,0.8404186 0,0.145167 -0.28,0.415287 -1.6284,1.570937 -1.6307,1.3976 -3.4688,3.3676 -4.4042,4.72033 -2.3544,3.40478 -3.7411,7.81208 -4.2615,13.54388 -0.2327,2.5626 -0.1822,7.8371 0.1025,10.7067 0.5592,5.6368 1.874,9.8055 4.2504,13.4762 1.344,2.0762 2.9047,3.7121 5.2415,5.4942 0.352,0.2684 0.6566,0.533 0.677,0.5879 0.0795,0.2141 -0.5603,0.9774 -0.8181,0.976 -0.0947,-6e-4 -0.4476,-0.1542 -0.7842,-0.3415 z"
     fill="#67c046"
     id="path3"
     style="fill:#6dbe48;fill-opacity:0.94901961" />
  <path
     style="fill:#444d4a;fill-opacity:0.94902"
     d="m 82.651325,35.732816 c -0.142732,-0.372224 -0.009,-19.309008 0.137362,-19.454339 0.215546,-0.213994 12.04225,-0.127708 14.061904,0.102593 5.755219,0.656269 8.854309,2.562309 10.200449,6.27361 1.89552,5.225888 -0.75097,10.365877 -6.28786,12.212257 -2.377609,0.792857 -3.840147,0.924765 -11.21106,1.011143 -5.73224,0.06717 -6.82818,0.0441 -6.900795,-0.145264 z m 14.482713,-2.45978 c 1.372947,-0.375245 2.725633,-1.114549 3.551582,-1.941099 1.33468,-1.33566 1.88746,-2.974623 1.89039,-5.604933 0.003,-2.732514 -0.62651,-4.239006 -2.37309,-5.678605 -1.710674,-1.410016 -3.048203,-1.703234 -8.368419,-1.834561 l -4.04809,-0.09992 -0.1051,1.113916 c -0.137851,1.461034 -0.138691,13.841258 -9.63e-4,14.200433 0.0981,0.255843 0.435706,0.270556 4.315669,0.188089 3.092315,-0.06573 4.455693,-0.156826 5.138021,-0.343315 z m 18.471562,2.537458 c -0.26495,-0.06929 -0.28233,-0.673321 -0.28233,-9.812035 V 16.26026 l 3.34767,-0.120059 c 5.59658,-0.200713 11.13793,0.09599 13.91501,0.745062 4.8728,1.138893 7.744,4.542474 7.744,9.179905 0,2.474536 -0.7833,4.346385 -2.5773,6.158947 -2.17136,2.193819 -4.73739,3.161195 -9.35329,3.526121 -2.08439,0.164789 -12.21165,0.212488 -12.79376,0.06026 z m 10.93034,-2.145474 c 6.01875,-0.402354 8.27139,-2.240902 8.70818,-7.107404 0.13164,-1.466692 -0.15808,-3.464692 -0.64769,-4.46662 -0.23925,-0.489596 -0.83395,-1.233153 -1.44019,-1.800677 -1.79274,-1.678243 -3.25179,-2.009177 -8.95963,-2.032169 l -3.79133,-0.01527 -0.0419,7.625098 -0.0419,7.625098 0.36457,0.083 c 0.33309,0.07583 1.23771,0.141198 2.94592,0.212861 0.35493,0.01489 1.66173,-0.04087 2.904,-0.123918 z m 18.31135,2.064624 c 0,-0.220936 0.35708,-0.561666 6.08222,-5.803607 2.32478,-2.128579 4.27369,-4.017723 4.3309,-4.198097 0.13521,-0.426338 0.11827,-0.44394 -4.52445,-4.699502 -2.1296,-1.952015 -4.12508,-3.812701 -4.43438,-4.134857 l -0.56238,-0.585739 0.48171,-0.103176 c 0.26494,-0.05675 1.31661,-0.110175 2.33705,-0.118731 1.47536,-0.01237 1.98749,0.04469 2.50067,0.278633 0.35493,0.161805 1.80871,1.340821 3.23062,2.620037 3.02747,2.723649 4.1812,3.698182 4.37819,3.698182 0.17536,0 1.83295,-1.360799 4.99338,-4.099318 1.321,-1.144648 2.63543,-2.179954 2.92097,-2.30068 0.75035,-0.317254 4.56285,-0.22058 4.56285,0.1157 0,0.06988 -1.94205,1.903618 -4.31567,4.07497 -2.37362,2.171352 -4.51199,4.156611 -4.75193,4.411687 l -0.43625,0.463775 0.51692,0.587096 c 0.52261,0.593552 1.12929,1.167994 7.01867,6.645725 1.79604,1.670503 3.22346,3.105401 3.17204,3.188662 -0.0523,0.08466 -1.24478,0.147944 -2.70564,0.14358 l -2.61214,-0.0078 -3.71067,-3.396868 c -2.04087,-1.868278 -3.98454,-3.615828 -4.31927,-3.883445 l -0.6086,-0.486575 -0.52073,0.402189 c -0.28641,0.221204 -2.28638,1.972265 -4.44438,3.891247 l -3.92363,3.489057 h -2.32804 c -1.69237,0 -2.32803,-0.05246 -2.32803,-0.192143 z"
     id="path6" />
</svg>
